PathFileType  4	(X/Y/Z) C:\Users\antoi\Documents\MyRepositories\mobilecap\ResultsAnalysis
DataRate	CameraRate	NumFrames	NumMarkers	Units	OrigDataRate	OrigDataStartFrame	OrigNumFrames
100.0	100.0	5	51	mm	100.0	222	253
Frame#	Time	r_knee			r_shank_antsup			r_ankle			r_calc			r_5meta			r_toe			L_knee			L_shank_antsup			L_ankle			L_calc			L_5meta			L_toe			r_sh2			r_sh3			r_sh4			L_sh2			L_sh3			r_thigh1			r_thigh2			r_thigh3			r_thigh4			r_thigh5			L_thigh1			L_thigh2			L_thigh3			L_thigh4			r.ASIS			r.PSIS			L.ASIS			L.PSIS			C7			R_Shoulder			L_Shoulder			R_Sternum			L_Sternum			R_humerus			R_elbow_med			R_elbow_lat			R_forearm			R_wrist_radius			R_wrist_ulna			L_humerus			L_elbow_med			L_elbow_lat			L_forearm			L_wrist_radius			L_wrist_ulna			R_HJC			L_HJC			R_HJC_reg			L_HJC_reg			
		X1	Y1	Z1	X2	Y2	Z2	X3	Y3	Z3	X4	Y4	Z4	X5	Y5	Z5	X6	Y6	Z6	X7	Y7	Z7	X8	Y8	Z8	X9	Y9	Z9	X10	Y10	Z10	X11	Y11	Z11	X12	Y12	Z12	X13	Y13	Z13	X14	Y14	Z14	X15	Y15	Z15	X16	Y16	Z16	X17	Y17	Z17	X18	Y18	Z18	X19	Y19	Z19	X20	Y20	Z20	X21	Y21	Z21	X22	Y22	Z22	X23	Y23	Z23	X24	Y24	Z24	X25	Y25	Z25	X26	Y26	Z26	X27	Y27	Z27	X28	Y28	Z28	X29	Y29	Z29	X30	Y30	Z30	X31	Y31	Z31	X32	Y32	Z32	X33	Y33	Z33	X34	Y34	Z34	X35	Y35	Z35	X36	Y36	Z36	X37	Y37	Z37	X38	Y38	Z38	X39	Y39	Z39	X40	Y40	Z40	X41	Y41	Z41	X42	Y42	Z42	X43	Y43	Z43	X44	Y44	Z44	X45	Y45	Z45	X46	Y46	Z46	X47	Y47	Z47	X48	Y48	Z48	X49	Y49	Z49	X50	Y50	Z50	X51	Y51	Z51	

222	2.21000000	-211.25422	786.11885	-429.74680	-212.45990	716.23602	-403.19136	-217.44397	405.23076	-432.37420	-278.48534	387.92388	-485.90012	-132.44470	325.65158	-395.09420	-75.64095	339.26896	-438.53645	-235.45502	792.23890	-747.22994	-216.99960	729.40158	-761.88386	-269.17401	418.25253	-750.28448	-328.87121	403.44549	-685.11400	-204.89222	335.34808	-794.50616	-138.66370	342.36661	-757.09954	-211.13516	603.67486	-396.15218	-282.10327	712.92861	-429.53874	-286.76800	597.05791	-427.72148	-305.53750	741.86809	-750.88638	-310.57831	620.79947	-761.35936	-141.38555	1091.91993	-456.26822	-133.33071	980.93889	-441.84433	-176.60121	958.07963	-396.70228	-233.60745	1092.56488	-389.56649	-229.22495	977.23695	-389.26948	-174.58278	1077.00505	-770.85649	-170.44889	938.55899	-770.18156	-291.81681	1074.39787	-769.14708	-278.29389	933.46966	-761.44887	-152.96471	1244.91968	-463.28922	-332.83261	1275.56116	-525.57439	-160.76627	1253.99756	-715.28155	-337.90525	1278.83812	-629.58186	-272.75431	1730.24981	-564.39715	-193.68328	1685.18828	-416.08448	-205.39825	1688.93662	-726.12290	-142.67997	1660.55489	-550.60035	-144.92684	1660.09228	-595.11407	-205.87127	1441.14052	-349.18166	-269.13692	1352.25363	-408.03182	-248.79653	1363.61767	-338.35260	-227.95083	1244.99926	-317.54196	-236.80834	1125.77662	-315.46931	-279.84812	1130.27127	-306.93789	-186.81371	1562.89404	-788.87073	-256.72116	1352.13834	-753.43747	-268.83274	1369.33858	-813.45308	-208.58597	1279.87316	-860.34182	-162.50397	1162.85193	-869.05673	-196.77205	1148.08141	-873.51325	-221.35931	1174.23322	-488.16905	-226.27900	1184.87042	-688.11856	-218.90728	1169.62978	-498.07033	-227.01506	1174.86689	-664.29389	
223	2.22000000	-211.18645	780.73410	-428.70076	-212.39516	710.83174	-402.16291	-219.11553	399.25067	-430.92309	-280.15846	383.24282	-485.08624	-135.20098	317.49664	-395.03351	-78.05315	331.82010	-437.56438	-234.16177	786.68569	-748.49058	-214.88030	723.51293	-762.68183	-270.59435	413.21567	-751.49734	-332.26320	399.82122	-688.00355	-206.76138	329.49865	-794.13155	-141.45091	334.90754	-754.93984	-211.69385	598.54882	-394.74739	-281.91522	707.84448	-428.70449	-287.18254	591.95258	-426.55577	-303.33939	737.01608	-753.67679	-309.62921	615.86421	-763.67159	-143.66364	1087.14374	-454.39538	-134.64412	976.12290	-439.78772	-178.60648	953.03922	-395.08129	-236.84337	1087.22932	-389.00991	-231.46755	971.79859	-388.68613	-177.98418	1072.07992	-772.06834	-172.46886	933.59493	-771.48220	-295.05238	1068.20441	-766.95601	-279.79519	927.25893	-759.93673	-153.77560	1239.23222	-462.41671	-333.92400	1269.27923	-524.88040	-162.35028	1247.59203	-714.77235	-339.16840	1272.60351	-628.73437	-275.10891	1724.39066	-563.73806	-195.02297	1680.37322	-414.93999	-207.17506	1683.03890	-726.16448	-144.57137	1655.14093	-549.92841	-146.89775	1654.78815	-594.37298	-206.95895	1435.95688	-348.92097	-269.63838	1347.31420	-408.19747	-249.04419	1358.13884	-338.64487	-227.36768	1239.34490	-319.25523	-236.02597	1120.12479	-318.53812	-278.81297	1124.39349	-308.87720	-187.84846	1556.00051	-787.69928	-255.86010	1345.73380	-750.65516	-268.95890	1362.50571	-810.62812	-211.62643	1272.74180	-858.77897	-167.86519	1154.93638	-867.95670	-202.55000	1140.88153	-871.26752	-222.24758	1168.35301	-487.26248	-227.55843	1178.48262	-687.22796	-219.66531	1163.18166	-497.21745	-228.07166	1168.50849	-663.66328	
224	2.23000000	-211.13782	774.48027	-427.48172	-212.21550	704.44942	-401.00277	-221.36188	392.41122	-429.10765	-282.81065	377.77934	-483.44634	-138.54262	308.24672	-395.14131	-81.64854	322.94737	-436.78448	-233.18741	780.25821	-749.86062	-212.98886	716.60610	-763.45005	-272.30907	407.21779	-752.77604	-335.78413	394.89258	-690.75980	-208.73235	322.65401	-793.74596	-144.24441	327.22711	-753.22752	-212.04798	592.89960	-393.30407	-281.60983	701.96754	-427.79368	-287.81480	586.07909	-425.28992	-301.35728	731.29388	-756.74626	-308.94287	609.99730	-766.48234	-145.57241	1081.31915	-451.83837	-135.94964	970.21868	-437.15008	-180.96584	946.81921	-393.55746	-239.96209	1081.00705	-388.32549	-234.24606	965.13920	-388.87089	-180.93845	1066.01482	-772.03004	-174.10039	927.63204	-772.27330	-297.82710	1060.92431	-764.27372	-281.16261	920.32428	-758.99322	-154.52852	1232.67563	-461.43510	-334.71542	1262.19576	-524.21410	-163.70705	1240.12911	-714.12629	-340.51789	1265.06969	-628.19376	-277.64217	1717.49402	-563.13241	-196.81858	1674.58272	-413.82797	-209.38732	1676.18874	-726.17604	-146.61121	1648.83004	-549.19653	-148.98711	1648.51769	-593.73179	-207.73889	1429.80087	-348.47299	-270.81584	1341.44796	-407.12653	-249.31668	1351.81915	-338.22398	-226.13240	1232.64477	-320.90029	-233.95856	1113.40833	-321.24297	-276.47674	1117.22698	-310.31070	-188.63874	1548.59147	-786.61944	-256.06202	1338.42463	-749.33348	-269.34389	1355.34266	-809.34504	-213.81065	1265.19112	-857.59739	-171.85290	1146.67686	-866.34993	-206.92918	1133.17581	-869.13416	-223.02387	1161.61544	-486.23855	-228.59272	1170.95490	-686.23544	-220.13644	1156.38780	-495.63427	-229.43329	1160.99488	-662.26839	
225	2.24000000	-211.16937	767.04529	-426.31138	-212.08872	696.79531	-399.90445	-224.37872	384.74437	-427.38179	-286.53985	370.99093	-481.24387	-142.40627	299.10407	-394.52975	-85.81848	313.48490	-436.48927	-232.56175	772.88750	-751.21026	-211.34448	708.80281	-764.53373	-274.59555	400.17903	-753.99777	-339.40641	388.11614	-693.08615	-210.77625	315.26996	-793.58304	-146.89656	319.85825	-752.20134	-212.90349	585.74926	-391.87507	-281.29371	695.04137	-426.78238	-288.87577	579.28057	-424.08507	-299.74749	724.55762	-759.81815	-308.52161	603.32703	-769.66095	-146.96324	1074.06571	-448.75819	-137.31213	962.92388	-434.00140	-183.59445	939.30745	-391.94764	-243.16655	1073.50547	-387.72380	-237.66438	956.85034	-389.99360	-183.15196	1058.85256	-771.04573	-175.22501	920.58302	-772.62005	-299.86908	1052.86713	-761.81388	-282.20157	912.54237	-758.46210	-155.13373	1225.22168	-460.39293	-335.23696	1254.25997	-523.45782	-164.86016	1231.66842	-713.08381	-341.73733	1256.37108	-627.78407	-280.26301	1709.62784	-562.62909	-199.25964	1667.59114	-413.27643	-211.90833	1668.44505	-726.09750	-148.78022	1641.70770	-548.55985	-151.21747	1641.35664	-593.15490	-208.38061	1422.71985	-347.98867	-272.33834	1334.40255	-405.56715	-249.74028	1344.53889	-337.18323	-224.54244	1225.07358	-322.27343	-230.77508	1105.77346	-323.41934	-273.09369	1108.96897	-311.37435	-189.37361	1540.65328	-785.56477	-257.42518	1330.43643	-749.28446	-269.94279	1347.71070	-809.41466	-215.14746	1257.09505	-856.60005	-174.65062	1138.02391	-864.54998	-209.95883	1124.86846	-867.21894	-223.63578	1153.98790	-485.02786	-229.35009	1162.37460	-685.06259	-220.41108	1149.13062	-493.60854	-230.79064	1152.50296	-660.20544	
226	2.25000000	-211.17526	758.22535	-425.18259	-212.03277	687.81076	-398.77526	-228.34627	376.23754	-426.00237	-291.33285	362.52095	-478.78131	-146.66636	290.58122	-393.02541	-90.28846	303.97984	-436.53894	-232.15383	764.57438	-752.51845	-210.03185	700.06558	-765.81393	-277.61987	392.03068	-754.93577	-343.14070	379.19489	-694.81718	-212.77449	307.52653	-793.67266	-149.38529	313.05480	-751.73008	-214.29624	576.91226	-390.44503	-281.02388	686.97721	-425.66853	-290.33380	571.44047	-422.93228	-298.44960	716.89205	-762.89549	-308.47511	595.76062	-772.63402	-147.97630	1065.27187	-445.54780	-138.56149	954.05472	-430.74416	-186.40700	930.58804	-390.04382	-246.72621	1064.50822	-387.48479	-241.45138	946.88301	-391.62089	-184.41030	1050.63304	-769.83002	-175.82777	912.49218	-772.74425	-300.99143	1044.26291	-760.38427	-282.65658	903.81262	-758.11555	-155.58360	1216.69854	-459.39734	-335.61873	1245.37724	-522.70365	-165.85455	1222.29897	-711.76336	-342.87961	1246.63231	-627.31186	-282.95891	1700.81597	-562.16335	-202.07728	1659.52198	-413.02135	-214.38807	1659.88448	-725.89395	-151.03238	1633.75262	-548.02616	-153.53959	1633.34592	-592.59278	-209.15582	1414.71665	-347.37058	-273.98843	1326.14885	-403.77542	-250.34705	1336.28172	-335.71251	-222.80683	1216.86108	-322.92153	-226.60572	1097.55023	-324.90991	-268.76915	1099.66767	-312.11240	-190.30700	1532.10720	-784.59444	-260.68299	1322.41736	-749.92389	-270.90275	1339.37329	-810.38088	-215.87963	1248.30686	-855.54245	-176.42995	1128.95123	-862.53258	-211.67909	1115.97986	-865.50876	-224.13106	1145.33257	-483.77726	-229.95192	1152.84726	-683.84383	-220.55029	1141.13947	-491.46955	-232.09780	1143.13272	-657.79944	
